<svg xmlns="http://www.w3.org/2000/svg" viewBox="0 0 640 360" width="640" height="360" role="img" aria-label="Illustrative professional services website">
  <defs>
    <style type="text/css"><![CDATA[
.t { font-family: 'Segoe UI', Arial, Helvetica, sans-serif; }
]]></style>
    <linearGradient id="s-hero" x1="0%" y1="0%" x2="100%" y2="0%">
      <stop offset="0%" stop-color="#1a2624"/>
      <stop offset="55%" stop-color="#243330"/>
      <stop offset="100%" stop-color="#1a2c27"/>
    </linearGradient>
  </defs>
  <rect width="640" height="360" fill="#e6ebe9"/>
  <rect x="12" y="12" width="616" height="336" rx="14" fill="#fff" stroke="#b0bbb8" stroke-width="1"/>
  <rect x="12" y="12" width="616" height="48" fill="#fff" stroke="#b8c3c0" stroke-width="1"/>
  <text class="t" x="32" y="41" font-size="11" font-weight="500" fill="#5a6f6b" text-anchor="start">Home</text>
  <text class="t" x="88" y="41" font-size="11" font-weight="700" fill="#0f172a" text-anchor="start">Services</text>
  <text class="t" x="168" y="41" font-size="11" font-weight="500" fill="#5a6f6b" text-anchor="start">Insights</text>
  <text class="t" x="248" y="41" font-size="11" font-weight="500" fill="#5a6f6b" text-anchor="start">Our Team</text>
  <rect x="528" y="26" width="84" height="26" rx="14" fill="#0f766e" stroke="#0d5f58" stroke-width="1"/>
  <text class="t" x="570" y="39" font-size="10" font-weight="600" fill="#fff" text-anchor="middle" dominant-baseline="central">Contact</text>
  <rect x="12" y="60" width="616" height="210" fill="url(#s-hero)"/>
  <text class="t" x="52" y="96" font-size="9" font-weight="700" fill="#5eead4" letter-spacing="0.08em">FEATURED</text>
  <text class="t" x="52" y="132" font-size="22" font-weight="700" fill="#f8fafc">Clarity for complex work</text>
  <text class="t" x="52" y="158" font-size="12" font-weight="400" fill="#a8c9c0" font-style="italic">Structured counsel and credible presentation</text>
  <rect x="52" y="176" width="268" height="5" rx="0" fill="#5c726e" opacity="0.45"/>
  <rect x="52" y="186" width="200" height="5" rx="0" fill="#5c726e" opacity="0.3"/>
  <rect x="52" y="204" width="112" height="34" rx="4" fill="#ecfdf5" stroke="#2dd4bf" stroke-width="1"/>
  <text class="t" x="108" y="221" font-size="10" font-weight="700" fill="#0f172a" text-anchor="middle" dominant-baseline="central">Schedule</text>
  <rect x="174" y="204" width="112" height="34" rx="17" fill="none" stroke="#7eb8ad" stroke-width="1.5"/>
  <text class="t" x="230" y="221" font-size="10" font-weight="600" fill="#e2e8f0" text-anchor="middle" dominant-baseline="central">Capabilities</text>
  <rect x="400" y="88" width="200" height="124" rx="6" fill="rgba(17,32,30,0.38)" stroke="#5c726e" stroke-width="1"/>
  <text class="t" x="414" y="108" font-size="9" font-weight="700" fill="#9cb8b0" letter-spacing="0.06em">OVERVIEW</text>
  <rect x="414" y="118" width="48" height="16" rx="2" fill="#ccfbf1" fill-opacity="0.22"/>
  <rect x="468" y="118" width="48" height="16" rx="2" fill="#ccfbf1" fill-opacity="0.16"/>
  <rect x="522" y="118" width="40" height="16" rx="2" fill="#ccfbf1" fill-opacity="0.14"/>
  <line x1="414" y1="146" x2="586" y2="146" stroke="#5c726e" stroke-opacity="0.45" stroke-width="1"/>
  <rect x="414" y="162" width="160" height="5" rx="0" fill="#b8ccc6" fill-opacity="0.4"/>
  <rect x="414" y="174" width="132" height="5" rx="0" fill="#b8ccc6" fill-opacity="0.28"/>
  <rect x="414" y="186" width="96" height="5" rx="0" fill="#b8ccc6" fill-opacity="0.22"/>
  <rect x="12" y="270" width="616" height="78" fill="#f1f5f3" stroke="#b8c4c0" stroke-width="1"/>
  <text class="t" x="44" y="290" font-size="9" font-weight="700" fill="#5a6f6b" letter-spacing="0.08em">SERVICES</text>
  <rect x="44" y="300" width="168" height="36" rx="6" fill="#fff" stroke="#a8b5b1" stroke-width="1"/>
  <rect x="56" y="310" width="24" height="16" rx="3" fill="#0f766e" fill-opacity="0.14" stroke="#0f766e" stroke-opacity="0.32" stroke-width="1"/>
  <text class="t" x="88" y="318" font-size="9" font-weight="700" fill="#334155">Approach</text>
  <text class="t" x="88" y="330" font-size="7" font-weight="500" fill="#5a6f6b">How we work with clients</text>
  <rect x="228" y="300" width="168" height="36" rx="6" fill="#fff" stroke="#a8b5b1" stroke-width="1"/>
  <rect x="240" y="310" width="24" height="16" rx="3" fill="#0f766e" fill-opacity="0.14" stroke="#0f766e" stroke-opacity="0.32" stroke-width="1"/>
  <text class="t" x="272" y="318" font-size="9" font-weight="700" fill="#334155">Capabilities</text>
  <text class="t" x="272" y="330" font-size="7" font-weight="500" fill="#5a6f6b">Matters we take on</text>
  <rect x="412" y="300" width="168" height="36" rx="6" fill="#fff" stroke="#a8b5b1" stroke-width="1"/>
  <rect x="424" y="310" width="24" height="16" rx="3" fill="#0f766e" fill-opacity="0.14" stroke="#0f766e" stroke-opacity="0.32" stroke-width="1"/>
  <text class="t" x="456" y="318" font-size="9" font-weight="700" fill="#334155">Support</text>
  <text class="t" x="456" y="330" font-size="7" font-weight="500" fill="#5a6f6b">Ongoing client service</text>
</svg>
